<mxfile host="app.diagrams.net" agent="Mozilla/5.0 (Windows NT 10.0; Win64; x64) AppleWebKit/537.36 (KHTML, like Gecko) Chrome/133.0.0.0 Safari/537.36" version="26.0.16">
  <diagram name="PÃ¡gina-1" id="cQjm73BFG9HV9MO7elic">
    <mxGraphModel dx="1050" dy="522" grid="1" gridSize="10" guides="1" tooltips="1" connect="1" arrows="1" fold="1" page="1" pageScale="1" pageWidth="827" pageHeight="1169" math="0" shadow="0">
      <root>
        <mxCell id="0" />
        <mxCell id="1" parent="0" />
        <mxCell id="j2NNfnbz7BMJd6bi4siy-29" value="Empleado" style="shape=swimlane;startSize=30;" vertex="1" parent="1">
          <mxGeometry x="310" y="30" width="180" height="130" as="geometry" />
        </mxCell>
        <mxCell id="j2NNfnbz7BMJd6bi4siy-30" value="- id: int&#xa;- salario: float&#xa;- maxHoras: int" style="shape=rectangle;" vertex="1" parent="j2NNfnbz7BMJd6bi4siy-29">
          <mxGeometry y="30" width="180" height="40" as="geometry" />
        </mxCell>
        <mxCell id="j2NNfnbz7BMJd6bi4siy-31" value="+ ingresarDatos(): void&#xa;+ mostrarDatos(): void&#xa;+ altaSeguridad(): void&#xa;+ bajaSeguridad(): void" style="shape=rectangle;" vertex="1" parent="j2NNfnbz7BMJd6bi4siy-29">
          <mxGeometry y="70" width="180" height="60" as="geometry" />
        </mxCell>
      </root>
    </mxGraphModel>
  </diagram>
</mxfile>
